<svg version="1.1" xmlns="http://www.w3.org/2000/svg" xmlns:xlink="http://www.w3.org/1999/xlink" width="376.23451" height="135.83207" viewBox="0,0,376.23451,135.83207"><defs><linearGradient x1="121.02212" y1="207.38318" x2="206.33646" y2="207.38318" gradientUnits="userSpaceOnUse" id="color-1"><stop offset="0" stop-color="#ffffff"/><stop offset="1" stop-color="#ffffff" stop-opacity="0"/></linearGradient><linearGradient x1="121.02211" y1="207.38318" x2="206.33646" y2="207.38318" gradientUnits="userSpaceOnUse" id="color-2"><stop offset="0" stop-color="#ffffff"/><stop offset="1" stop-color="#ffffff" stop-opacity="0"/></linearGradient><linearGradient x1="167.67307" y1="217.39651" x2="194.51177" y2="136.41366" gradientUnits="userSpaceOnUse" id="color-3"><stop offset="0" stop-color="#ffffff"/><stop offset="1" stop-color="#ffffff" stop-opacity="0"/></linearGradient><linearGradient x1="167.67307" y1="217.39651" x2="194.51177" y2="136.41366" gradientUnits="userSpaceOnUse" id="color-4"><stop offset="0" stop-color="#ffffff"/><stop offset="1" stop-color="#ffffff" stop-opacity="0"/></linearGradient><linearGradient x1="192.01432" y1="175.4188" x2="122.89248" y2="125.4117" gradientUnits="userSpaceOnUse" id="color-5"><stop offset="0" stop-color="#ffffff"/><stop offset="1" stop-color="#ffffff" stop-opacity="0"/></linearGradient><linearGradient x1="192.01432" y1="175.4188" x2="122.89248" y2="125.4117" gradientUnits="userSpaceOnUse" id="color-6"><stop offset="0" stop-color="#ffffff"/><stop offset="1" stop-color="#ffffff" stop-opacity="0"/></linearGradient><linearGradient x1="160.08695" y1="139.96148" x2="90.874" y2="189.84239" gradientUnits="userSpaceOnUse" id="color-7"><stop offset="0" stop-color="#ffffff"/><stop offset="1" stop-color="#ffffff" stop-opacity="0"/></linearGradient><linearGradient x1="160.08695" y1="139.96148" x2="90.874" y2="189.84239" gradientUnits="userSpaceOnUse" id="color-8"><stop offset="0" stop-color="#ffffff"/><stop offset="1" stop-color="#ffffff" stop-opacity="0"/></linearGradient><linearGradient x1="116.29235" y1="159.41179" x2="142.69827" y2="240.5368" gradientUnits="userSpaceOnUse" id="color-9"><stop offset="0" stop-color="#ffffff"/><stop offset="1" stop-color="#ffffff" stop-opacity="0"/></linearGradient><linearGradient x1="116.29235" y1="159.41179" x2="142.69827" y2="240.5368" gradientUnits="userSpaceOnUse" id="color-10"><stop offset="0" stop-color="#ffffff"/><stop offset="1" stop-color="#ffffff" stop-opacity="0"/></linearGradient></defs><g transform="translate(-84.28477,-112.08396)"><g data-paper-data="{&quot;isPaintingLayer&quot;:true}" fill-rule="nonzero" stroke-linecap="butt" stroke-linejoin="miter" stroke-miterlimit="10" stroke-dasharray="" stroke-dashoffset="0" style="mix-blend-mode: normal"><g><path d="M193.49723,232.7349c0,0 -10.83625,11.00822 -31.84206,14.40674c-19.67612,3.63157 -40.63305,-6.68834 -40.63305,-6.68834l13.42776,-5.3654c0,0 11.30383,4.32092 24.95315,2.06485c14.56543,-1.76683 23.91435,-9.14284 23.91435,-9.14284l-2.67766,-37.14077l20.41036,-24.01881l5.28638,8.75795l-15.43684,18.42802z" fill="url(#color-1)" stroke="#ffffff" stroke-width="0"/><path d="M193.49723,232.7349c0,0 -10.83625,11.00822 -31.84206,14.40674c-19.67612,3.63157 -40.63305,-6.68834 -40.63305,-6.68834l13.42777,-5.36541c0,0 11.30383,4.32092 24.95315,2.06486c14.56543,-1.76683 23.91435,-9.14284 23.91435,-9.14284l-2.67766,-37.14077l20.41037,-24.01881l5.28638,8.75795l-15.43684,18.42802z" fill="url(#color-2)" stroke="#ffffff" stroke-width="0"/><path d="M214.53731,156.57632c0,0 7.04039,13.74912 3.65823,34.75757c-2.74264,19.81958 -19.13136,36.46602 -19.13136,36.46602l-0.86881,-14.43391c0,0 7.65757,-9.37062 9.80993,-23.03667c2.90495,-14.38175 -1.15553,-25.5764 -1.15553,-25.5764l-36.09745,-9.14226l-16.37854,-26.93009l9.97632,-2.26285l12.6362,20.45029z" fill="url(#color-3)" stroke="#ffffff" stroke-width="0"/><path d="M214.53731,156.57632c0,0 7.04039,13.74912 3.65823,34.75757c-2.74264,19.81958 -19.13136,36.46602 -19.13136,36.46602l-0.86881,-14.43391c0,0 7.65757,-9.37062 9.80993,-23.03667c2.90495,-14.38175 -1.15553,-25.5764 -1.15553,-25.5764l-36.09745,-9.14226l-16.37854,-26.93009l9.97632,-2.26285l12.6362,20.45029z" fill="url(#color-4)" stroke="#ffffff" stroke-width="0"/><path d="M148.15479,112.39743c0,0 15.23203,-2.56719 34.24302,6.9919c18.07027,8.59087 29.0006,29.23602 29.0006,29.23602l-14.02414,-3.52365c0,0 -6.62566,-10.12656 -19.00676,-16.29926c-12.83657,-7.10605 -24.73453,-6.60988 -24.73453,-6.60988l-19.60066,31.66103l-30.61517,7.49653l0.85046,-10.19433l23.30856,-5.88209z" fill="url(#color-5)" stroke="#ffffff" stroke-width="0"/><path d="M148.15479,112.39743c0,0 15.23203,-2.56719 34.24302,6.9919c18.07027,8.59087 29.0006,29.23602 29.0006,29.23602l-14.02414,-3.52365c0,0 -6.62566,-10.12656 -19.00676,-16.29926c-12.83657,-7.10605 -24.73453,-6.60988 -24.73453,-6.60988l-19.60066,31.66103l-30.61517,7.49653l0.85046,-10.19433l23.30856,-5.88209z" fill="url(#color-6)" stroke="#ffffff" stroke-width="0"/><path d="M86.46764,161.76857c0,0 2.35493,-15.26629 17.40928,-30.30491c13.83937,-14.45026 36.87485,-18.33096 36.87485,-18.33096l-7.75654,12.20364c0,0 -11.69677,3.1036 -21.451,12.91425c-10.78348,9.94938 -14.05542,21.39936 -14.05542,21.39936l23.88747,28.56563l-2.51518,31.41911l-9.40921,-4.01426l1.7491,-23.97559z" fill="url(#color-7)" stroke="#ffffff" stroke-width="0"/><path d="M86.46764,161.76857c0,0 2.35493,-15.26629 17.40928,-30.30491c13.83937,-14.45026 36.87485,-18.33096 36.87485,-18.33096l-7.75654,12.20364c0,0 -11.69677,3.1036 -21.451,12.91425c-10.78348,9.94938 -14.05542,21.39936 -14.05542,21.39936l23.88747,28.56563l-2.51518,31.41911l-9.40921,-4.01426l1.7491,-23.97559z" fill="url(#color-8)" stroke="#ffffff" stroke-width="0"/><path d="M114.61753,236.17472c0,0 -13.82162,-6.89696 -23.55483,-25.81939c-9.54326,-17.58591 -6.21656,-40.7079 -6.21656,-40.7079l9.25801,11.10773c0,0 -0.61005,12.08613 5.75987,24.36692c6.18827,13.30334 16.09568,19.91021 16.09568,19.91021l34.48821,-14.04173l29.15664,11.97397l-6.69169,7.7375l-22.30102,-8.97511z" fill="url(#color-9)" stroke="#ffffff" stroke-width="0"/><path d="M114.61753,236.17472c0,0 -13.82162,-6.89696 -23.55483,-25.81939c-9.54326,-17.58591 -6.21656,-40.7079 -6.21656,-40.7079l9.25801,11.10773c0,0 -0.61005,12.08613 5.75987,24.36692c6.18827,13.30334 16.09568,19.91021 16.09568,19.91021l34.48821,-14.04173l29.15664,11.97397l-6.69169,7.7375l-22.30102,-8.97511z" fill="url(#color-10)" stroke="#ffffff" stroke-width="0"/><path d="M145.69972,180c0,-3.31371 2.68629,-6 6,-6c3.31371,0 6,2.68629 6,6c0,3.31371 -2.68629,6 -6,6c-3.31371,0 -6,-2.68629 -6,-6z" fill="#ffffff" stroke="none" stroke-width="0.5"/></g><text transform="translate(232.167,196.825) scale(0.70104,0.70104)" font-size="80" xml:space="preserve" fill="#ffffff" fill-rule="nonzero" stroke="#ffffff" stroke-width="0" stroke-linecap="butt" stroke-linejoin="miter" stroke-miterlimit="10" stroke-dasharray="" stroke-dashoffset="0" font-family="Arial Rounded MT Bold,Arial Rounded MT Bold_MSFontService,sans-serif" font-weight="700" text-anchor="start" style="mix-blend-mode: normal"><tspan x="0" dy="0">FUNSKY</tspan></text></g></g></svg>