<?xml version="1.0"?>
<svg version="1.1" xmlns="http://www.w3.org/2000/svg" width="400" height="200" style="border: dashed 2px #aaa"><path fill="#ffffff" d="M20.088,119.584q0-2.304,1.632-4.176q1.632-1.968,3.936-1.968l0.624,0l8.976,0l0-2.976l-8.976,0l-0.624,0q-2.448-0.48-4.008-2.112t-1.56-3.888q0-2.832,1.656-4.488t4.536-1.656l16.32,0l0-3.024l-16.32,0q-3.696,0-6.432,2.736q-2.736,2.64-2.736,6.432q0,2.4,0.912,4.368t2.688,2.832q-1.776,1.296-2.688,3.408t-0.912,4.512q0,3.744,2.736,6.384q2.784,2.784,6.432,2.784l16.32,0l0-3.168l-16.32,0q-2.88,0-4.536-1.632t-1.656-4.368z M48.44832,116.32l13.968,0l0-3.024l-13.968,0l0,3.024z M94.37664,128.8l0-3.024l-8.544,0q-5.952,0-9.984-4.032t-4.032-9.984q0-5.472,4.032-9.408t9.984-3.936l8.544,0l0-3.12l-8.544,0q-7.248,0-12.144,4.8q-4.896,4.752-4.896,11.664q0,7.344,4.896,12.144q4.8,4.896,12.144,4.896l8.544,0z M113.71296,95.2q-5.424,0-9.312,3.888q-3.936,3.936-3.936,9.36l0,7.248q0,5.328,3.936,9.264t9.312,3.936q5.424,0,9.36-3.936q3.888-3.888,3.888-9.264l0-7.248q0-5.472-3.888-9.36t-9.36-3.888z M123.98496,108.448l0,7.248q0,4.368-3.072,7.344q-3.024,2.88-7.2,2.88t-7.152-2.88q-3.072-2.976-3.072-7.344l0-7.248q0-4.032,3.072-7.2q3.072-3.072,7.152-3.072q4.032,0,7.2,3.072q3.072,3.168,3.072,7.2z M134.10528,128.704l2.976,0l0-20.304q0-4.032,3.072-7.104t7.104-3.072q3.936,0,7.104,3.072q3.024,3.024,3.024,7.104l0,20.304l3.072,0l0-20.304q0-4.128,3.072-7.104q3.072-3.072,7.056-3.072q4.032,0,7.104,3.072t3.072,7.104l0,20.304l2.976,0l0-20.304q0-5.472-3.84-9.312t-9.312-3.84q-3.6,0-6.768,1.968q-3.216,2.016-4.608,5.136q-1.872-3.216-5.04-5.136q-3.312-1.968-6.912-1.968q-5.424,0-9.264,3.84q-3.888,3.888-3.888,9.312l0,20.304z M191.2176,128.704l2.976,0l0-20.304q0-4.032,3.072-7.104t7.104-3.072q3.936,0,7.104,3.072q3.024,3.024,3.024,7.104l0,20.304l3.072,0l0-20.304q0-4.128,3.072-7.104q3.072-3.072,7.056-3.072q4.032,0,7.104,3.072t3.072,7.104l0,20.304l2.976,0l0-20.304q0-5.472-3.84-9.312t-9.312-3.84q-3.6,0-6.768,1.968q-3.216,2.016-4.608,5.136q-1.872-3.216-5.04-5.136q-3.312-1.968-6.912-1.968q-5.424,0-9.264,3.84q-3.888,3.888-3.888,9.312l0,20.304z M251.11392,119.584q0-2.304,1.632-4.176q1.632-1.968,3.936-1.968l0.624,0l8.976,0l0-2.976l-8.976,0l-0.624,0q-2.448-0.48-4.008-2.112t-1.56-3.888q0-2.832,1.656-4.488t4.536-1.656l16.32,0l0-3.024l-16.32,0q-3.696,0-6.432,2.736q-2.736,2.64-2.736,6.432q0,2.4,0.912,4.368t2.688,2.832q-1.776,1.296-2.688,3.408t-0.912,4.512q0,3.744,2.736,6.384q2.784,2.784,6.432,2.784l16.32,0l0-3.168l-16.32,0q-2.88,0-4.536-1.632t-1.656-4.368z M294.30624,111.952l3.6,0q3.648,0,6.048-2.4t2.4-6.048q0-3.216-2.4-5.76q-2.544-2.64-6.048-2.64l-15.024,0l-2.976,0l0,33.696l2.976,0l0-16.848l7.824,0l10.224,16.848l3.6,0z M282.88224,108.976l0-10.848l15.024,0q2.208,0,3.888,1.584q1.584,1.584,1.584,3.792q0,2.304-1.584,3.888q-1.68,1.584-3.888,1.584l-15.024,0z M338.31456,128.8l0-3.024l-8.544,0q-5.952,0-9.984-4.032t-4.032-9.984q0-5.472,4.032-9.408t9.984-3.936l8.544,0l0-3.12l-8.544,0q-7.248,0-12.144,4.8q-4.896,4.752-4.896,11.664q0,7.344,4.896,12.144q4.8,4.896,12.144,4.896l8.544,0z M347.52288,119.584q0-2.304,1.632-4.176q1.632-1.968,3.936-1.968l0.624,0l8.976,0l0-2.976l-8.976,0l-0.624,0q-2.448-0.48-4.008-2.112t-1.56-3.888q0-2.832,1.656-4.488t4.536-1.656l16.32,0l0-3.024l-16.32,0q-3.696,0-6.432,2.736q-2.736,2.64-2.736,6.432q0,2.4,0.912,4.368t2.688,2.832q-1.776,1.296-2.688,3.408t-0.912,4.512q0,3.744,2.736,6.384q2.784,2.784,6.432,2.784l16.32,0l0-3.168l-16.32,0q-2.88,0-4.536-1.632t-1.656-4.368z"/><path fill="#" d=""/></svg>
